<svg xmlns="http://www.w3.org/2000/svg" width="1536" height="1024" viewBox="0 0 1536 1024"><rect width="1536" height="1024" fill="#251b31"/><text x="70" y="88" font-family="monospace" font-size="22" letter-spacing="5" fill="#ffb56d">FOOT FUSION POINT / MACRO</text><rect x="100" y="140" width="1336" height="760" fill="#17101d"/><g fill="none" stroke="#ffb56d" stroke-width="25"><path d="M180 260 Q280 160 380 260 T580 260 T780 260 T980 260 T1180 260 T1380 260"/><path d="M180 460 Q280 360 380 460 T580 460 T780 460 T980 460 T1180 460 T1380 460"/><path d="M180 660 Q280 560 380 660 T580 660 T780 660 T980 660 T1180 660 T1380 660"/></g><path d="M620 180 V800 M920 180 V800" stroke="#6ac4b7" stroke-width="18" stroke-dasharray="22 18"/><text x="170" y="850" fill="#f4ead9" font-size="42" font-family="monospace">macro knit loops, reinforced heel and breathable mesh</text></svg>