<svg xmlns="http://www.w3.org/2000/svg" width="1536" height="1024" viewBox="0 0 1536 1024"><rect width="1536" height="1024" fill="#dbe9ed"/><text x="70" y="88" font-family="monospace" font-size="22" letter-spacing="5" fill="#4e7b78">FOOT FUSION POINT / RECOVERY</text><rect x="100" y="140" width="1336" height="750" fill="#edf5f2"/><path d="M360 720 C280 520 360 290 540 270 C720 250 830 470 730 650 C650 790 450 820 360 720Z" fill="#4e7b78"/><path d="M830 700 C780 520 850 360 1000 330 C1160 300 1280 480 1210 630 C1140 780 920 810 830 700Z" fill="#3153d8"/><path d="M420 640 Q530 500 650 630 M900 640 Q1010 510 1130 630" fill="none" stroke="#f5d6a5" stroke-width="42" stroke-dasharray="14 18"/><text x="180" y="850" fill="#4e7b78" font-size="40" font-family="monospace">recovery socks and calm evening stretch setup</text></svg>